<?xml version="1.0" encoding="UTF-8"?>
<svg id="Layer_2" data-name="Layer 2" xmlns="http://www.w3.org/2000/svg" xmlns:xlink="http://www.w3.org/1999/xlink" viewBox="0 0 420.57 110.06">
  <defs>
    <style>
      .cls-1 {
        fill: url(#linear-gradient-2);
      }

      .cls-2 {
        fill: url(#linear-gradient-3);
      }

      .cls-3 {
        fill: url(#linear-gradient);
      }
    </style>
    <linearGradient id="linear-gradient" x1="-53.09" y1="8.41" x2="124.11" y2="75.81" gradientUnits="userSpaceOnUse">
      <stop offset=".14" stop-color="#5c5c6a"/>
      <stop offset=".25" stop-color="#62616c"/>
      <stop offset=".4" stop-color="#757175"/>
      <stop offset=".58" stop-color="#948b82"/>
      <stop offset=".77" stop-color="#beb094"/>
      <stop offset=".99" stop-color="#f5deac"/>
      <stop offset="1" stop-color="#f9e2ae"/>
    </linearGradient>
    <linearGradient id="linear-gradient-2" x1="68.98" y1="73.72" x2="420.57" y2="73.72" gradientUnits="userSpaceOnUse">
      <stop offset="0" stop-color="#5c5c6a"/>
      <stop offset=".07" stop-color="#685b5e"/>
      <stop offset=".2" stop-color="#7e594b"/>
      <stop offset=".29" stop-color="#865945"/>
      <stop offset=".39" stop-color="#8f654f"/>
      <stop offset=".56" stop-color="#a9876b"/>
      <stop offset=".8" stop-color="#d3bc98"/>
      <stop offset="1" stop-color="#fcf0c3"/>
    </linearGradient>
    <linearGradient id="linear-gradient-3" x1="70.85" y1="103.93" x2="235.24" y2="103.93" xlink:href="#linear-gradient"/>
  </defs>
  <g id="Layer_1-2" data-name="Layer 1">
    <path class="cls-3" d="m41.11,32.02C33.16,47.27,11.11,74.29.33,86.97l-.33-54.96h41.11ZM9.02,93.03h52s0-35.65,0-35.65c-6.82,4.48-29.71,17.38-52,35.65ZM41.11,4.95c4.03,4.48,8.11,8.87,12.1,13.04C41.59,42.42,1.54,91.7.8,92.61c24.11-18.1,73.37-52.12,74.2-52.69,7.92,7.64,13.18,12.42,13.18,12.42.8-3.06,4.12-52.34,4.12-52.34-2.3,1.06-51.19,4.95-51.19,4.95Z"/>
    <path class="cls-1" d="m80.84,90.54c-2.35,0-4.59-.34-6.73-1.01-2.14-.67-3.85-1.54-5.14-2.6l1.94-4.34c1.2.95,2.69,1.74,4.47,2.37,1.78.63,3.6.95,5.46.95,1.58,0,2.85-.17,3.83-.52.97-.34,1.69-.81,2.15-1.4.46-.59.69-1.25.69-2,0-.92-.33-1.66-.99-2.21-.66-.56-1.51-1-2.56-1.33-1.05-.33-2.21-.63-3.48-.9-1.28-.27-2.55-.61-3.83-1.01-1.28-.4-2.44-.91-3.5-1.53s-1.91-1.44-2.56-2.47c-.64-1.03-.97-2.35-.97-3.96s.44-3.13,1.31-4.49c.87-1.36,2.21-2.45,4-3.27,1.79-.82,4.06-1.23,6.82-1.23,1.81,0,3.6.23,5.38.69,1.78.46,3.33,1.12,4.64,1.98l-1.76,4.34c-1.35-.8-2.74-1.4-4.17-1.78-1.43-.39-2.81-.58-4.13-.58-1.52,0-2.77.19-3.74.56-.97.37-1.68.87-2.13,1.48-.44.62-.67,1.3-.67,2.04,0,.92.32,1.66.97,2.21.65.56,1.49,1,2.54,1.31,1.05.32,2.21.62,3.5.9,1.29.29,2.57.62,3.83,1.01,1.26.39,2.42.89,3.48,1.5,1.06.62,1.91,1.43,2.56,2.45.65,1.02.97,2.32.97,3.89s-.44,3.09-1.31,4.45c-.88,1.36-2.21,2.45-4.02,3.27-1.81.82-4.08,1.23-6.84,1.23Zm24.12-.13c-1.72,0-3.23-.29-4.52-.88-1.29-.59-2.29-1.4-2.99-2.45-.7-1.05-1.05-2.23-1.05-3.55s.31-2.45.92-3.48c.62-1.03,1.63-1.85,3.03-2.45,1.4-.6,3.27-.9,5.59-.9h6.66v3.57h-6.28c-1.81,0-3.03.29-3.68.88-.64.59-.97,1.33-.97,2.21,0,.95.39,1.71,1.16,2.28.77.57,1.85.86,3.23.86s2.5-.3,3.55-.9c1.05-.6,1.81-1.49,2.3-2.67l.86,3.22c-.52,1.35-1.43,2.39-2.75,3.14-1.32.75-3.01,1.12-5.07,1.12Zm7.22-.3v-4.69l-.26-.95v-8.13c0-1.58-.48-2.8-1.44-3.68-.96-.87-2.42-1.31-4.36-1.31-1.26,0-2.51.2-3.74.6-1.23.4-2.29.96-3.18,1.68l-2.11-3.91c1.26-.95,2.74-1.66,4.43-2.15,1.69-.49,3.45-.73,5.29-.73,3.35,0,5.93.8,7.74,2.41,1.81,1.61,2.71,4.07,2.71,7.4v13.46h-5.07Zm11.95,0v-31.91h5.33v31.91h-5.33Zm23.22.3c-2.55,0-4.78-.51-6.69-1.53-1.91-1.02-3.38-2.41-4.43-4.17s-1.57-3.79-1.57-6.08.51-4.32,1.53-6.08,2.42-3.15,4.21-4.17c1.79-1.02,3.83-1.53,6.13-1.53s4.23.49,5.98,1.48c1.75.99,3.12,2.37,4.13,4.15,1,1.78,1.5,3.88,1.5,6.32,0,.2,0,.45-.02.75-.01.3-.04.57-.06.8h-19.14v-3.57h16.3l-2.15,1.12c.03-1.29-.24-2.44-.8-3.46-.56-1.02-1.33-1.81-2.3-2.36-.98-.56-2.12-.84-3.44-.84s-2.44.28-3.46.84c-1.02.56-1.8,1.35-2.34,2.39-.54,1.03-.82,2.22-.82,3.57v.86c0,1.38.31,2.59.92,3.65.62,1.06,1.5,1.89,2.64,2.47,1.15.59,2.48.88,4,.88,1.29,0,2.45-.21,3.48-.65,1.03-.43,1.95-1.06,2.75-1.89l2.92,3.35c-1.06,1.2-2.37,2.12-3.93,2.75-1.56.63-3.35.95-5.35.95Zm23.09,0c-1.95,0-3.8-.25-5.55-.75-1.75-.5-3.15-1.11-4.21-1.83l2.06-4.08c1.03.66,2.26,1.2,3.7,1.61,1.43.42,2.88.62,4.34.62,1.66,0,2.87-.22,3.63-.67.76-.44,1.14-1.05,1.14-1.83,0-.63-.26-1.11-.77-1.44-.52-.33-1.19-.58-2.02-.75-.83-.17-1.76-.33-2.77-.47-1.02-.14-2.04-.34-3.05-.58s-1.94-.6-2.77-1.08-1.5-1.11-2.02-1.91c-.52-.8-.77-1.88-.77-3.22,0-1.43.42-2.69,1.25-3.76.83-1.08,2-1.91,3.5-2.52,1.5-.6,3.29-.9,5.35-.9,1.52,0,3.07.18,4.67.54s2.92.85,3.98,1.48l-2.11,4.08c-1.06-.63-2.15-1.07-3.27-1.31-1.12-.24-2.22-.37-3.31-.37-1.61,0-2.81.24-3.61.71-.8.47-1.2,1.08-1.2,1.83,0,.69.26,1.2.77,1.55.52.34,1.19.61,2.02.8.83.19,1.76.36,2.77.52,1.02.16,2.03.36,3.03.6,1,.24,1.93.59,2.77,1.03.84.45,1.53,1.07,2.04,1.87s.77,1.85.77,3.14c0,1.46-.42,2.72-1.27,3.76-.85,1.05-2.04,1.86-3.57,2.45-1.53.59-3.38.88-5.53.88Zm30.88-5.03h16.99v4.73h-22.58v-30.1h21.97v4.73h-16.38v20.64Zm-.43-12.86h14.96v4.6h-14.96v-4.6Zm23.22,17.59v-31.91h5.33v31.91h-5.33Zm15.14-26.75c-1,0-1.83-.32-2.47-.95-.65-.63-.97-1.4-.97-2.32,0-.86.32-1.61.97-2.24.64-.63,1.47-.95,2.47-.95s1.83.29,2.47.88c.65.59.97,1.34.97,2.26s-.32,1.7-.95,2.34c-.63.65-1.46.97-2.49.97Zm-2.67,26.75v-22.96h5.33v22.96h-5.33Zm9.37-18.49v-4.3h15.31v4.3h-15.31Zm11.7,18.79c-2.52,0-4.47-.65-5.85-1.96s-2.06-3.22-2.06-5.74v-20.64h5.33v20.47c0,1.09.29,1.94.86,2.54.57.6,1.38.9,2.41.9,1.17,0,2.15-.32,2.92-.95l1.55,3.83c-.66.52-1.45.9-2.37,1.16-.92.26-1.85.39-2.79.39Zm20.38,0c-2.55,0-4.78-.51-6.69-1.53-1.91-1.02-3.38-2.41-4.43-4.17s-1.57-3.79-1.57-6.08.51-4.32,1.53-6.08,2.42-3.15,4.21-4.17c1.79-1.02,3.83-1.53,6.13-1.53s4.23.49,5.98,1.48c1.75.99,3.12,2.37,4.13,4.15,1,1.78,1.5,3.88,1.5,6.32,0,.2,0,.45-.02.75-.01.3-.04.57-.06.8h-19.14v-3.57h16.3l-2.15,1.12c.03-1.29-.24-2.44-.8-3.46-.56-1.02-1.33-1.81-2.3-2.36-.98-.56-2.12-.84-3.44-.84s-2.44.28-3.46.84c-1.02.56-1.8,1.35-2.34,2.39-.54,1.03-.82,2.22-.82,3.57v.86c0,1.38.31,2.59.92,3.65.62,1.06,1.5,1.89,2.64,2.47,1.15.59,2.48.88,4,.88,1.29,0,2.45-.21,3.48-.65,1.03-.43,1.95-1.06,2.75-1.89l2.92,3.35c-1.06,1.2-2.37,2.12-3.93,2.75-1.56.63-3.35.95-5.35.95Zm33.69.13c-2.35,0-4.59-.34-6.73-1.01-2.14-.67-3.85-1.54-5.14-2.6l1.94-4.34c1.2.95,2.69,1.74,4.47,2.37,1.78.63,3.6.95,5.46.95,1.58,0,2.85-.17,3.83-.52.97-.34,1.69-.81,2.15-1.4.46-.59.69-1.25.69-2,0-.92-.33-1.66-.99-2.21-.66-.56-1.51-1-2.56-1.33-1.05-.33-2.21-.63-3.48-.9-1.28-.27-2.55-.61-3.83-1.01-1.28-.4-2.44-.91-3.5-1.53s-1.91-1.44-2.56-2.47c-.64-1.03-.97-2.35-.97-3.96s.44-3.13,1.31-4.49c.87-1.36,2.21-2.45,4-3.27,1.79-.82,4.06-1.23,6.82-1.23,1.81,0,3.6.23,5.38.69,1.78.46,3.33,1.12,4.64,1.98l-1.76,4.34c-1.35-.8-2.74-1.4-4.17-1.78-1.43-.39-2.81-.58-4.13-.58-1.52,0-2.77.19-3.74.56-.97.37-1.68.87-2.13,1.48-.44.62-.67,1.3-.67,2.04,0,.92.32,1.66.97,2.21.65.56,1.49,1,2.54,1.31,1.05.32,2.21.62,3.5.9,1.29.29,2.57.62,3.83,1.01,1.26.39,2.42.89,3.48,1.5,1.06.62,1.91,1.43,2.56,2.45.65,1.02.97,2.32.97,3.89s-.44,3.09-1.31,4.45c-.88,1.36-2.21,2.45-4.02,3.27-1.81.82-4.08,1.23-6.84,1.23Zm22.27-.43l-8.43-22.96h5.07l7.27,20.25h-2.45l7.57-20.25h4.51l7.4,20.25h-2.41l7.44-20.25h4.77l-8.47,22.96h-5.16l-6.67-17.93h1.55l-6.84,17.93h-5.16Zm37.15-26.75c-1,0-1.83-.32-2.47-.95-.65-.63-.97-1.4-.97-2.32,0-.86.32-1.61.97-2.24.64-.63,1.47-.95,2.47-.95s1.83.29,2.47.88c.65.59.97,1.34.97,2.26s-.32,1.7-.95,2.34c-.63.65-1.46.97-2.49.97Zm-2.67,26.75v-22.96h5.33v22.96h-5.33Zm19.56.3c-1.95,0-3.8-.25-5.55-.75-1.75-.5-3.15-1.11-4.21-1.83l2.06-4.08c1.03.66,2.26,1.2,3.7,1.61,1.43.42,2.88.62,4.34.62,1.66,0,2.87-.22,3.63-.67.76-.44,1.14-1.05,1.14-1.83,0-.63-.26-1.11-.77-1.44-.52-.33-1.19-.58-2.02-.75-.83-.17-1.76-.33-2.77-.47-1.02-.14-2.04-.34-3.05-.58s-1.94-.6-2.77-1.08-1.5-1.11-2.02-1.91c-.52-.8-.77-1.88-.77-3.22,0-1.43.42-2.69,1.25-3.76.83-1.08,2-1.91,3.5-2.52,1.5-.6,3.29-.9,5.35-.9,1.52,0,3.07.18,4.67.54s2.92.85,3.98,1.48l-2.11,4.08c-1.06-.63-2.15-1.07-3.27-1.31-1.12-.24-2.22-.37-3.31-.37-1.61,0-2.81.24-3.61.71-.8.47-1.2,1.08-1.2,1.83,0,.69.26,1.2.77,1.55.52.34,1.19.61,2.02.8.83.19,1.76.36,2.77.52,1.02.16,2.03.36,3.03.6,1,.24,1.93.59,2.77,1.03.84.45,1.53,1.07,2.04,1.87s.77,1.85.77,3.14c0,1.46-.42,2.72-1.27,3.76-.85,1.05-2.04,1.86-3.57,2.45-1.53.59-3.38.88-5.53.88Zm22.14,0c-1.95,0-3.8-.25-5.55-.75-1.75-.5-3.15-1.11-4.21-1.83l2.06-4.08c1.03.66,2.26,1.2,3.7,1.61,1.43.42,2.88.62,4.34.62,1.66,0,2.87-.22,3.63-.67.76-.44,1.14-1.05,1.14-1.83,0-.63-.26-1.11-.77-1.44-.52-.33-1.19-.58-2.02-.75-.83-.17-1.76-.33-2.77-.47-1.02-.14-2.04-.34-3.05-.58s-1.94-.6-2.77-1.08-1.5-1.11-2.02-1.91c-.52-.8-.77-1.88-.77-3.22,0-1.43.42-2.69,1.25-3.76.83-1.08,2-1.91,3.5-2.52,1.5-.6,3.29-.9,5.35-.9,1.52,0,3.07.18,4.67.54s2.92.85,3.98,1.48l-2.11,4.08c-1.06-.63-2.15-1.07-3.27-1.31-1.12-.24-2.22-.37-3.31-.37-1.61,0-2.81.24-3.61.71-.8.47-1.2,1.08-1.2,1.83,0,.69.26,1.2.77,1.55.52.34,1.19.61,2.02.8.83.19,1.76.36,2.77.52,1.02.16,2.03.36,3.03.6,1,.24,1.93.59,2.77,1.03.84.45,1.53,1.07,2.04,1.87s.77,1.85.77,3.14c0,1.46-.42,2.72-1.27,3.76-.85,1.05-2.04,1.86-3.57,2.45-1.53.59-3.38.88-5.53.88Z"/>
    <path class="cls-2" d="m77.4,98.58l-2.72,5.21v3.16h-1.09v-3.16l-2.74-5.21h1.21l2.06,4.24,2.06-4.24h1.21Zm2.35,8.05c-.5-.28-.89-.68-1.18-1.19-.28-.52-.43-1.11-.43-1.79s.15-1.27.44-1.78.69-.91,1.19-1.19c.5-.28,1.07-.41,1.69-.41s1.19.14,1.69.41c.5.28.9.67,1.19,1.18s.44,1.11.44,1.79-.15,1.28-.45,1.79c-.3.52-.71.91-1.22,1.19-.51.28-1.08.42-1.7.42s-1.17-.14-1.67-.42Zm2.78-.82c.34-.18.62-.46.83-.83.21-.37.32-.82.32-1.34s-.1-.98-.31-1.34c-.21-.37-.48-.64-.82-.82-.34-.18-.7-.27-1.09-.27s-.77.09-1.1.27c-.33.18-.6.45-.8.82-.2.37-.3.82-.3,1.34s.1.99.29,1.36c.2.37.46.64.79.82s.69.27,1.08.27.76-.09,1.1-.28Zm9.54-5.45v6.58h-1.09v-.97c-.21.34-.5.6-.87.79-.37.19-.78.28-1.23.28-.51,0-.97-.11-1.38-.32-.41-.21-.73-.53-.97-.95-.24-.42-.35-.94-.35-1.55v-3.85h1.08v3.71c0,.65.16,1.15.49,1.49s.78.52,1.34.52,1.04-.18,1.38-.54c.34-.36.5-.88.5-1.57v-3.61h1.09Zm3.76.19c.36-.21.79-.31,1.3-.31v1.13h-.29c-1.22,0-1.84.66-1.84,1.99v3.58h-1.09v-6.58h1.09v1.07c.19-.38.47-.67.82-.88Zm6.94,6.17c-.44-.2-.78-.47-1.03-.82-.25-.35-.38-.75-.38-1.21h1.16c.04.39.2.72.49.99.28.27.7.4,1.24.4s.93-.13,1.23-.39c.3-.26.45-.59.45-1,0-.32-.09-.58-.26-.78s-.4-.35-.66-.46c-.26-.1-.62-.22-1.07-.34-.55-.14-.99-.29-1.33-.43-.33-.14-.62-.37-.85-.68-.24-.31-.35-.72-.35-1.24,0-.46.12-.86.35-1.21.23-.35.56-.62.98-.82.42-.19.9-.29,1.45-.29.78,0,1.43.2,1.93.59s.78.91.85,1.56h-1.2c-.04-.32-.21-.6-.5-.85s-.69-.37-1.18-.37c-.46,0-.83.12-1.12.35-.29.24-.43.57-.43.99,0,.3.09.55.26.74.17.19.38.34.64.44.25.1.61.21,1.06.34.55.15,1,.3,1.33.45.34.15.62.38.86.68.24.31.36.73.36,1.25,0,.41-.11.79-.32,1.15s-.54.65-.96.88-.92.34-1.5.34-1.05-.1-1.48-.29Zm11.71-6.37v6.58h-1.09v-.97c-.21.34-.5.6-.87.79-.37.19-.78.28-1.23.28-.51,0-.97-.11-1.38-.32-.41-.21-.73-.53-.97-.95-.24-.42-.35-.94-.35-1.55v-3.85h1.08v3.71c0,.65.16,1.15.49,1.49s.78.52,1.34.52,1.04-.18,1.38-.54c.34-.36.5-.88.5-1.57v-3.61h1.09Zm1.85,1.49c.27-.51.65-.9,1.13-1.18.48-.28,1.04-.42,1.66-.42.81,0,1.47.2,2,.59.52.39.87.94,1.04,1.63h-1.18c-.11-.4-.33-.72-.65-.95-.32-.23-.73-.35-1.21-.35-.62,0-1.13.21-1.51.64-.38.43-.58,1.03-.58,1.82s.19,1.4.58,1.84c.38.43.89.65,1.51.65.48,0,.88-.11,1.2-.34.32-.22.54-.54.66-.96h1.18c-.18.67-.53,1.21-1.06,1.61-.53.4-1.19.61-1.98.61-.62,0-1.18-.14-1.66-.42-.48-.28-.86-.68-1.13-1.19-.27-.51-.41-1.11-.41-1.8s.14-1.27.41-1.78Zm7.28,0c.27-.51.65-.9,1.13-1.18.48-.28,1.04-.42,1.66-.42.81,0,1.47.2,2,.59.52.39.87.94,1.04,1.63h-1.18c-.11-.4-.33-.72-.65-.95-.32-.23-.73-.35-1.21-.35-.62,0-1.13.21-1.51.64-.38.43-.58,1.03-.58,1.82s.19,1.4.58,1.84c.38.43.89.65,1.51.65.48,0,.88-.11,1.2-.34.32-.22.54-.54.66-.96h1.18c-.18.67-.53,1.21-1.06,1.61-.53.4-1.19.61-1.98.61-.62,0-1.18-.14-1.66-.42-.48-.28-.86-.68-1.13-1.19-.27-.51-.41-1.11-.41-1.8s.14-1.27.41-1.78Zm13.25,2.2h-5.26c.04.65.26,1.15.67,1.52.4.36.89.55,1.47.55.47,0,.87-.11,1.18-.33.32-.22.54-.51.67-.88h1.18c-.18.63-.53,1.15-1.06,1.54-.53.4-1.18.59-1.97.59-.62,0-1.18-.14-1.67-.42-.49-.28-.88-.68-1.16-1.19-.28-.52-.42-1.11-.42-1.79s.14-1.28.41-1.79c.27-.51.65-.91,1.15-1.18.49-.28,1.06-.41,1.7-.41s1.18.14,1.66.41c.48.27.85.65,1.11,1.12.26.48.39,1.01.39,1.61,0,.21-.01.43-.04.66Zm-1.37-1.96c-.18-.3-.43-.53-.75-.68-.32-.16-.67-.23-1.05-.23-.55,0-1.02.18-1.41.53-.39.35-.61.84-.67,1.46h4.15c0-.42-.09-.77-.28-1.07Zm3.82,4.69c-.4-.17-.72-.41-.95-.72-.23-.31-.36-.66-.38-1.06h1.13c.03.33.19.6.46.8.28.21.64.31,1.09.31.42,0,.74-.09.98-.28.24-.18.36-.42.36-.7s-.13-.5-.38-.64c-.26-.14-.65-.28-1.19-.41-.49-.13-.89-.26-1.19-.39-.31-.13-.57-.33-.79-.59-.22-.26-.33-.6-.33-1.03,0-.34.1-.64.3-.92.2-.28.48-.5.85-.67.37-.16.79-.25,1.26-.25.73,0,1.32.18,1.76.55s.69.87.72,1.51h-1.09c-.02-.34-.16-.62-.41-.83s-.59-.31-1.01-.31c-.39,0-.7.08-.94.25-.23.17-.35.39-.35.66,0,.22.07.39.21.53.14.14.32.25.53.34.21.08.51.18.88.28.47.13.86.25,1.15.38s.55.31.76.56.32.57.33.97c0,.36-.1.68-.3.97-.2.29-.48.51-.85.68-.36.16-.78.25-1.25.25-.5,0-.96-.09-1.36-.26Zm6.26,0c-.4-.17-.72-.41-.95-.72-.23-.31-.36-.66-.38-1.06h1.13c.03.33.19.6.46.8.28.21.64.31,1.09.31.42,0,.74-.09.98-.28.24-.18.36-.42.36-.7s-.13-.5-.38-.64c-.26-.14-.65-.28-1.19-.41-.49-.13-.89-.26-1.19-.39-.31-.13-.57-.33-.79-.59-.22-.26-.33-.6-.33-1.03,0-.34.1-.64.3-.92.2-.28.48-.5.85-.67.37-.16.79-.25,1.26-.25.73,0,1.32.18,1.76.55s.69.87.72,1.51h-1.09c-.02-.34-.16-.62-.41-.83s-.59-.31-1.01-.31c-.39,0-.7.08-.94.25-.23.17-.35.39-.35.66,0,.22.07.39.21.53.14.14.32.25.53.34.21.08.51.18.88.28.47.13.86.25,1.15.38s.55.31.76.56.32.57.33.97c0,.36-.1.68-.3.97-.2.29-.48.51-.85.68-.36.16-.78.25-1.25.25-.5,0-.96-.09-1.36-.26Zm6.42-1.36l-1.34,3.23h-.73l.88-3.23h1.2Zm6.12,1.05c-.64-.36-1.15-.87-1.52-1.52-.37-.65-.56-1.39-.56-2.2s.19-1.55.56-2.2c.37-.65.88-1.16,1.52-1.52.64-.36,1.35-.55,2.12-.55s1.5.18,2.14.55c.64.36,1.14.87,1.51,1.52.37.65.55,1.38.55,2.21s-.18,1.56-.55,2.21c-.37.65-.87,1.15-1.51,1.52-.64.36-1.35.55-2.14.55s-1.48-.18-2.12-.55Zm3.7-.81c.47-.27.84-.66,1.1-1.16.27-.5.4-1.09.4-1.75s-.13-1.26-.4-1.76c-.27-.5-.63-.89-1.1-1.16-.46-.27-.99-.41-1.58-.41s-1.12.14-1.58.41c-.46.27-.83.66-1.1,1.16-.27.5-.4,1.09-.4,1.76s.13,1.25.4,1.75c.27.5.64.89,1.1,1.16.47.27.99.41,1.58.41s1.11-.14,1.58-.41Zm9.89-5.3v6.58h-1.09v-.97c-.21.34-.5.6-.87.79-.37.19-.78.28-1.23.28-.51,0-.97-.11-1.38-.32-.41-.21-.73-.53-.97-.95-.24-.42-.35-.94-.35-1.55v-3.85h1.08v3.71c0,.65.16,1.15.49,1.49s.78.52,1.34.52,1.04-.18,1.38-.54c.34-.36.5-.88.5-1.57v-3.61h1.09Zm3.76.19c.36-.21.79-.31,1.3-.31v1.13h-.29c-1.22,0-1.84.66-1.84,1.99v3.58h-1.09v-6.58h1.09v1.07c.19-.38.47-.67.82-.88Zm6.86-1.09v2.8h3.05v.9h-3.05v2.88h3.41v.9h-4.5v-8.38h4.5v.9h-3.41Zm8.5,7.48l-1.56-2.45-1.5,2.45h-1.14l2.12-3.26-2.12-3.31h1.24l1.56,2.44,1.49-2.44h1.14l-2.11,3.25,2.12,3.32h-1.24Zm4.37-6.31c.43-.25.93-.38,1.49-.38s1.11.14,1.59.42c.48.28.85.67,1.12,1.18.27.51.41,1.1.41,1.77s-.14,1.26-.41,1.78c-.27.52-.65.92-1.12,1.21-.48.29-1.01.43-1.59.43s-1.05-.13-1.48-.38c-.43-.25-.75-.57-.98-.94v4.33h-1.09v-9.7h1.09v1.21c.22-.38.54-.69.97-.94Zm3.2,1.7c-.2-.37-.47-.65-.81-.84-.34-.19-.71-.29-1.12-.29s-.77.1-1.11.29c-.34.2-.61.48-.82.85s-.31.8-.31,1.29.1.93.31,1.3.48.66.82.85c.34.2.71.29,1.11.29s.78-.1,1.12-.29c.34-.2.61-.48.81-.85s.3-.81.3-1.31-.1-.93-.3-1.3Zm8.82,1.73h-5.26c.04.65.26,1.15.67,1.52.4.36.89.55,1.47.55.47,0,.87-.11,1.18-.33.32-.22.54-.51.67-.88h1.18c-.18.63-.53,1.15-1.06,1.54-.53.4-1.18.59-1.97.59-.62,0-1.18-.14-1.67-.42-.49-.28-.88-.68-1.16-1.19-.28-.52-.42-1.11-.42-1.79s.14-1.28.41-1.79c.27-.51.65-.91,1.15-1.18.49-.28,1.06-.41,1.7-.41s1.18.14,1.66.41c.48.27.85.65,1.11,1.12.26.48.39,1.01.39,1.61,0,.21-.01.43-.04.66Zm-1.37-1.96c-.18-.3-.43-.53-.75-.68-.32-.16-.67-.23-1.05-.23-.55,0-1.02.18-1.41.53-.39.35-.61.84-.67,1.46h4.15c0-.42-.09-.77-.28-1.07Zm4.76-1.54c.36-.21.79-.31,1.3-.31v1.13h-.29c-1.22,0-1.84.66-1.84,1.99v3.58h-1.09v-6.58h1.09v1.07c.19-.38.47-.67.82-.88Zm3.89.71v3.88c0,.32.07.55.2.68s.37.2.71.2h.8v.92h-.98c-.61,0-1.06-.14-1.37-.42-.3-.28-.46-.74-.46-1.38v-3.88h-.85v-.9h.85v-1.66h1.09v1.66h1.72v.9h-1.72Zm3.07-2.18c-.14-.14-.22-.32-.22-.53s.07-.38.22-.53.32-.22.53-.22.37.07.51.22.21.32.21.53-.07.38-.21.53c-.14.14-.31.22-.51.22s-.38-.07-.53-.22Zm1.06,1.28v6.58h-1.09v-6.58h1.09Zm2.83,6.43c-.4-.17-.72-.41-.95-.72-.23-.31-.36-.66-.38-1.06h1.13c.03.33.19.6.46.8.28.21.64.31,1.09.31.42,0,.74-.09.98-.28.24-.18.36-.42.36-.7s-.13-.5-.38-.64c-.26-.14-.65-.28-1.19-.41-.49-.13-.89-.26-1.19-.39-.31-.13-.57-.33-.79-.59-.22-.26-.33-.6-.33-1.03,0-.34.1-.64.3-.92.2-.28.48-.5.85-.67.37-.16.79-.25,1.26-.25.73,0,1.32.18,1.76.55s.69.87.72,1.51h-1.09c-.02-.34-.16-.62-.41-.83s-.59-.31-1.01-.31c-.39,0-.7.08-.94.25-.23.17-.35.39-.35.66,0,.22.07.39.21.53.14.14.32.25.53.34.21.08.51.18.88.28.47.13.86.25,1.15.38s.55.31.76.56.32.57.33.97c0,.36-.1.68-.3.97-.2.29-.48.51-.85.68-.36.16-.78.25-1.25.25-.5,0-.96-.09-1.36-.26Zm11.26-2.73h-5.26c.04.65.26,1.15.67,1.52.4.36.89.55,1.47.55.47,0,.87-.11,1.18-.33.32-.22.54-.51.67-.88h1.18c-.18.63-.53,1.15-1.06,1.54-.53.4-1.18.59-1.97.59-.62,0-1.18-.14-1.67-.42-.49-.28-.88-.68-1.16-1.19-.28-.52-.42-1.11-.42-1.79s.14-1.28.41-1.79c.27-.51.65-.91,1.15-1.18.49-.28,1.06-.41,1.7-.41s1.18.14,1.66.41c.48.27.85.65,1.11,1.12.26.48.39,1.01.39,1.61,0,.21-.01.43-.04.66Zm-1.37-1.96c-.18-.3-.43-.53-.75-.68-.32-.16-.67-.23-1.05-.23-.55,0-1.02.18-1.41.53-.39.35-.61.84-.67,1.46h4.15c0-.42-.09-.77-.28-1.07Zm2.66,4.7c-.14-.14-.22-.32-.22-.53s.07-.38.22-.53.32-.22.53-.22.37.07.51.22c.14.14.21.32.21.53s-.07.38-.21.53c-.14.14-.31.22-.51.22-.21,0-.38-.07-.53-.22Z"/>
  </g>
</svg>