<?xml version="1.0" encoding="UTF-8"?>
<svg id="Layer_2" data-name="Layer 2" xmlns="http://www.w3.org/2000/svg" xmlns:xlink="http://www.w3.org/1999/xlink" viewBox="0 0 426.14 93.04">
  <defs>
    <style>
      .cls-1 {
        fill: url(#linear-gradient-2);
      }

      .cls-2 {
        fill: url(#linear-gradient);
      }
    </style>
    <linearGradient id="linear-gradient" x1="-53.09" y1="8.41" x2="124.11" y2="75.81" gradientUnits="userSpaceOnUse">
      <stop offset=".14" stop-color="#5c5c6a"/>
      <stop offset=".25" stop-color="#62616c"/>
      <stop offset=".4" stop-color="#757175"/>
      <stop offset=".58" stop-color="#948b82"/>
      <stop offset=".77" stop-color="#beb094"/>
      <stop offset=".99" stop-color="#f5deac"/>
      <stop offset="1" stop-color="#f9e2ae"/>
    </linearGradient>
    <linearGradient id="linear-gradient-2" x1="69.55" y1="69.21" x2="426.14" y2="69.21" gradientUnits="userSpaceOnUse">
      <stop offset="0" stop-color="#865945"/>
      <stop offset="0" stop-color="#865945"/>
      <stop offset=".11" stop-color="#a58166"/>
      <stop offset=".22" stop-color="#c0a383"/>
      <stop offset=".33" stop-color="#d5bf9a"/>
      <stop offset=".46" stop-color="#e6d4ac"/>
      <stop offset=".6" stop-color="#f2e4b9"/>
      <stop offset=".76" stop-color="#f9edc0"/>
      <stop offset="1" stop-color="#fcf0c3"/>
    </linearGradient>
  </defs>
  <g id="Layer_1-2" data-name="Layer 1">
    <path class="cls-2" d="m41.11,32.02C33.16,47.27,11.11,74.29.33,86.97l-.33-54.96h41.11ZM9.02,93.03h52s0-35.65,0-35.65c-6.82,4.48-29.71,17.38-52,35.65ZM41.11,4.95c4.03,4.48,8.11,8.87,12.1,13.04C41.59,42.42,1.54,91.7.8,92.61c24.11-18.1,73.37-52.12,74.2-52.69,7.92,7.64,13.18,12.42,13.18,12.42.8-3.06,4.12-52.34,4.12-52.34-2.3,1.06-51.19,4.95-51.19,4.95Z"/>
    <path class="cls-1" d="m81.41,86.02c-2.35,0-4.59-.34-6.73-1.01-2.14-.67-3.85-1.54-5.14-2.6l1.94-4.34c1.2.95,2.69,1.74,4.47,2.37,1.78.63,3.6.95,5.46.95,1.58,0,2.85-.17,3.83-.52.97-.34,1.69-.81,2.15-1.4.46-.59.69-1.25.69-2,0-.92-.33-1.66-.99-2.21-.66-.56-1.51-1-2.56-1.33-1.05-.33-2.21-.63-3.48-.9-1.28-.27-2.55-.61-3.83-1.01-1.28-.4-2.44-.91-3.5-1.53s-1.91-1.44-2.56-2.47c-.64-1.03-.97-2.35-.97-3.96s.44-3.13,1.31-4.49c.87-1.36,2.21-2.45,4-3.27,1.79-.82,4.06-1.23,6.82-1.23,1.81,0,3.6.23,5.38.69,1.78.46,3.33,1.12,4.64,1.98l-1.76,4.34c-1.35-.8-2.74-1.4-4.17-1.78-1.43-.39-2.81-.58-4.13-.58-1.52,0-2.77.19-3.74.56-.97.37-1.68.87-2.13,1.48-.44.62-.67,1.3-.67,2.04,0,.92.32,1.66.97,2.21.65.56,1.49,1,2.54,1.31,1.05.32,2.21.62,3.5.9,1.29.29,2.57.62,3.83,1.01,1.26.39,2.42.89,3.48,1.5,1.06.62,1.91,1.43,2.56,2.45.65,1.02.97,2.32.97,3.89s-.44,3.09-1.31,4.45c-.88,1.36-2.21,2.45-4.02,3.27-1.81.82-4.08,1.23-6.84,1.23Zm24.12-.13c-1.72,0-3.23-.29-4.52-.88-1.29-.59-2.29-1.4-2.99-2.45-.7-1.05-1.05-2.23-1.05-3.55s.31-2.45.92-3.48c.62-1.03,1.63-1.85,3.03-2.45,1.4-.6,3.27-.9,5.59-.9h6.66v3.57h-6.28c-1.81,0-3.03.29-3.68.88-.64.59-.97,1.33-.97,2.21,0,.95.39,1.71,1.16,2.28.77.57,1.85.86,3.23.86s2.5-.3,3.55-.9c1.05-.6,1.81-1.49,2.3-2.67l.86,3.22c-.52,1.35-1.43,2.39-2.75,3.14-1.32.75-3.01,1.12-5.07,1.12Zm7.22-.3v-4.69l-.26-.95v-8.13c0-1.58-.48-2.8-1.44-3.68-.96-.87-2.42-1.31-4.36-1.31-1.26,0-2.51.2-3.74.6-1.23.4-2.29.96-3.18,1.68l-2.11-3.91c1.26-.95,2.74-1.66,4.43-2.15,1.69-.49,3.45-.73,5.29-.73,3.35,0,5.93.8,7.74,2.41,1.81,1.61,2.71,4.07,2.71,7.4v13.46h-5.07Zm11.95,0v-31.91h5.33v31.91h-5.33Zm23.22.3c-2.55,0-4.78-.51-6.69-1.53-1.91-1.02-3.38-2.41-4.43-4.17s-1.57-3.79-1.57-6.08.51-4.32,1.53-6.08,2.42-3.15,4.21-4.17c1.79-1.02,3.83-1.53,6.13-1.53s4.23.49,5.98,1.48c1.75.99,3.12,2.37,4.13,4.15,1,1.78,1.5,3.88,1.5,6.32,0,.2,0,.45-.02.75-.01.3-.04.57-.06.8h-19.14v-3.57h16.3l-2.15,1.12c.03-1.29-.24-2.44-.8-3.46-.56-1.02-1.33-1.81-2.3-2.36-.98-.56-2.12-.84-3.44-.84s-2.44.28-3.46.84c-1.02.56-1.8,1.35-2.34,2.39-.54,1.03-.82,2.22-.82,3.57v.86c0,1.38.31,2.59.92,3.65.62,1.06,1.5,1.89,2.64,2.47,1.15.59,2.48.88,4,.88,1.29,0,2.45-.21,3.48-.65,1.03-.43,1.95-1.06,2.75-1.89l2.92,3.35c-1.06,1.2-2.37,2.12-3.93,2.75-1.56.63-3.35.95-5.35.95Zm23.09,0c-1.95,0-3.8-.25-5.55-.75-1.75-.5-3.15-1.11-4.21-1.83l2.06-4.08c1.03.66,2.26,1.2,3.7,1.61,1.43.42,2.88.62,4.34.62,1.66,0,2.87-.22,3.63-.67.76-.44,1.14-1.05,1.14-1.83,0-.63-.26-1.11-.77-1.44-.52-.33-1.19-.58-2.02-.75-.83-.17-1.76-.33-2.77-.47-1.02-.14-2.04-.34-3.05-.58s-1.94-.6-2.77-1.08-1.5-1.11-2.02-1.91c-.52-.8-.77-1.88-.77-3.22,0-1.43.42-2.69,1.25-3.76.83-1.08,2-1.91,3.5-2.52,1.5-.6,3.29-.9,5.35-.9,1.52,0,3.07.18,4.67.54s2.92.85,3.98,1.48l-2.11,4.08c-1.06-.63-2.15-1.07-3.27-1.31-1.12-.24-2.22-.37-3.31-.37-1.61,0-2.81.24-3.61.71-.8.47-1.2,1.08-1.2,1.83,0,.69.26,1.2.77,1.55.52.34,1.19.61,2.02.8.83.19,1.76.36,2.77.52,1.02.16,2.03.36,3.03.6,1,.24,1.93.59,2.77,1.03.84.45,1.53,1.07,2.04,1.87s.77,1.85.77,3.14c0,1.46-.42,2.72-1.27,3.76-.85,1.05-2.04,1.86-3.57,2.45-1.53.59-3.38.88-5.53.88Zm32.88-5.03h16.99v4.73h-22.58v-30.1h21.97v4.73h-16.38v20.64Zm-.43-12.86h14.96v4.6h-14.96v-4.6Zm23.22,17.59v-31.91h5.33v31.91h-5.33Zm15.14-26.75c-1,0-1.83-.32-2.47-.95-.65-.63-.97-1.4-.97-2.32,0-.86.32-1.61.97-2.24.64-.63,1.47-.95,2.47-.95s1.83.29,2.47.88c.65.59.97,1.34.97,2.26s-.32,1.7-.95,2.34c-.63.65-1.46.97-2.49.97Zm-2.67,26.75v-22.96h5.33v22.96h-5.33Zm9.37-18.49v-4.3h15.31v4.3h-15.31Zm11.7,18.79c-2.52,0-4.47-.65-5.85-1.96s-2.06-3.22-2.06-5.74v-20.64h5.33v20.47c0,1.09.29,1.94.86,2.54.57.6,1.38.9,2.41.9,1.17,0,2.15-.32,2.92-.95l1.55,3.83c-.66.52-1.45.9-2.37,1.16-.92.26-1.85.39-2.79.39Zm20.38,0c-2.55,0-4.78-.51-6.69-1.53-1.91-1.02-3.38-2.41-4.43-4.17s-1.57-3.79-1.57-6.08.51-4.32,1.53-6.08,2.42-3.15,4.21-4.17c1.79-1.02,3.83-1.53,6.13-1.53s4.23.49,5.98,1.48c1.75.99,3.12,2.37,4.13,4.15,1,1.78,1.5,3.88,1.5,6.32,0,.2,0,.45-.02.75-.01.3-.04.57-.06.8h-19.14v-3.57h16.3l-2.15,1.12c.03-1.29-.24-2.44-.8-3.46-.56-1.02-1.33-1.81-2.3-2.36-.98-.56-2.12-.84-3.44-.84s-2.44.28-3.46.84c-1.02.56-1.8,1.35-2.34,2.39-.54,1.03-.82,2.22-.82,3.57v.86c0,1.38.31,2.59.92,3.65.62,1.06,1.5,1.89,2.64,2.47,1.15.59,2.48.88,4,.88,1.29,0,2.45-.21,3.48-.65,1.03-.43,1.95-1.06,2.75-1.89l2.92,3.35c-1.06,1.2-2.37,2.12-3.93,2.75-1.56.63-3.35.95-5.35.95Zm36.69.13c-2.35,0-4.59-.34-6.73-1.01-2.14-.67-3.85-1.54-5.14-2.6l1.94-4.34c1.2.95,2.69,1.74,4.47,2.37,1.78.63,3.6.95,5.46.95,1.58,0,2.85-.17,3.83-.52.97-.34,1.69-.81,2.15-1.4.46-.59.69-1.25.69-2,0-.92-.33-1.66-.99-2.21-.66-.56-1.51-1-2.56-1.33-1.05-.33-2.21-.63-3.48-.9-1.28-.27-2.55-.61-3.83-1.01-1.28-.4-2.44-.91-3.5-1.53s-1.91-1.44-2.56-2.47c-.64-1.03-.97-2.35-.97-3.96s.44-3.13,1.31-4.49c.87-1.36,2.21-2.45,4-3.27,1.79-.82,4.06-1.23,6.82-1.23,1.81,0,3.6.23,5.38.69,1.78.46,3.33,1.12,4.64,1.98l-1.76,4.34c-1.35-.8-2.74-1.4-4.17-1.78-1.43-.39-2.81-.58-4.13-.58-1.52,0-2.77.19-3.74.56-.97.37-1.68.87-2.13,1.48-.44.62-.67,1.3-.67,2.04,0,.92.32,1.66.97,2.21.65.56,1.49,1,2.54,1.31,1.05.32,2.21.62,3.5.9,1.29.29,2.57.62,3.83,1.01,1.26.39,2.42.89,3.48,1.5,1.06.62,1.91,1.43,2.56,2.45.65,1.02.97,2.32.97,3.89s-.44,3.09-1.31,4.45c-.88,1.36-2.21,2.45-4.02,3.27-1.81.82-4.08,1.23-6.84,1.23Zm22.27-.43l-8.43-22.96h5.07l7.27,20.25h-2.45l7.57-20.25h4.51l7.4,20.25h-2.41l7.44-20.25h4.77l-8.47,22.96h-5.16l-6.67-17.93h1.55l-6.84,17.93h-5.16Zm37.15-26.75c-1,0-1.83-.32-2.47-.95-.65-.63-.97-1.4-.97-2.32,0-.86.32-1.61.97-2.24.64-.63,1.47-.95,2.47-.95s1.83.29,2.47.88c.65.59.97,1.34.97,2.26s-.32,1.7-.95,2.34c-.63.65-1.46.97-2.49.97Zm-2.67,26.75v-22.96h5.33v22.96h-5.33Zm19.56.3c-1.95,0-3.8-.25-5.55-.75-1.75-.5-3.15-1.11-4.21-1.83l2.06-4.08c1.03.66,2.26,1.2,3.7,1.61,1.43.42,2.88.62,4.34.62,1.66,0,2.87-.22,3.63-.67.76-.44,1.14-1.05,1.14-1.83,0-.63-.26-1.11-.77-1.44-.52-.33-1.19-.58-2.02-.75-.83-.17-1.76-.33-2.77-.47-1.02-.14-2.04-.34-3.05-.58s-1.94-.6-2.77-1.08-1.5-1.11-2.02-1.91c-.52-.8-.77-1.88-.77-3.22,0-1.43.42-2.69,1.25-3.76.83-1.08,2-1.91,3.5-2.52,1.5-.6,3.29-.9,5.35-.9,1.52,0,3.07.18,4.67.54s2.92.85,3.98,1.48l-2.11,4.08c-1.06-.63-2.15-1.07-3.27-1.31-1.12-.24-2.22-.37-3.31-.37-1.61,0-2.81.24-3.61.71-.8.47-1.2,1.08-1.2,1.83,0,.69.26,1.2.77,1.55.52.34,1.19.61,2.02.8.83.19,1.76.36,2.77.52,1.02.16,2.03.36,3.03.6,1,.24,1.93.59,2.77,1.03.84.45,1.53,1.07,2.04,1.87s.77,1.85.77,3.14c0,1.46-.42,2.72-1.27,3.76-.85,1.05-2.04,1.86-3.57,2.45-1.53.59-3.38.88-5.53.88Zm22.14,0c-1.95,0-3.8-.25-5.55-.75-1.75-.5-3.15-1.11-4.21-1.83l2.06-4.08c1.03.66,2.26,1.2,3.7,1.61,1.43.42,2.88.62,4.34.62,1.66,0,2.87-.22,3.63-.67.76-.44,1.14-1.05,1.14-1.83,0-.63-.26-1.11-.77-1.44-.52-.33-1.19-.58-2.02-.75-.83-.17-1.76-.33-2.77-.47-1.02-.14-2.04-.34-3.05-.58s-1.94-.6-2.77-1.08-1.5-1.11-2.02-1.91c-.52-.8-.77-1.88-.77-3.22,0-1.43.42-2.69,1.25-3.76.83-1.08,2-1.91,3.5-2.52,1.5-.6,3.29-.9,5.35-.9,1.52,0,3.07.18,4.67.54s2.92.85,3.98,1.48l-2.11,4.08c-1.06-.63-2.15-1.07-3.27-1.31-1.12-.24-2.22-.37-3.31-.37-1.61,0-2.81.24-3.61.71-.8.47-1.2,1.08-1.2,1.83,0,.69.26,1.2.77,1.55.52.34,1.19.61,2.02.8.83.19,1.76.36,2.77.52,1.02.16,2.03.36,3.03.6,1,.24,1.93.59,2.77,1.03.84.45,1.53,1.07,2.04,1.87s.77,1.85.77,3.14c0,1.46-.42,2.72-1.27,3.76-.85,1.05-2.04,1.86-3.57,2.45-1.53.59-3.38.88-5.53.88Z"/>
  </g>
</svg>