<?xml version="1.0" encoding="UTF-8"?>
<svg id="Layer_2" data-name="Layer 2" xmlns="http://www.w3.org/2000/svg" xmlns:xlink="http://www.w3.org/1999/xlink" viewBox="0 0 165.13 93.04">
  <defs>
    <style>
      .cls-1 {
        fill: url(#linear-gradient-2);
      }

      .cls-2 {
        fill: #5c5c6a;
      }

      .cls-3 {
        fill: url(#linear-gradient);
      }
    </style>
    <linearGradient id="linear-gradient" x1="48.52" y1="125.71" x2="227.76" y2="-7.57" gradientUnits="userSpaceOnUse">
      <stop offset=".14" stop-color="#5c5c6a"/>
      <stop offset=".29" stop-color="#716d73"/>
      <stop offset=".59" stop-color="#a79c8a"/>
      <stop offset="1" stop-color="#f9e2ae"/>
    </linearGradient>
    <linearGradient id="linear-gradient-2" x1="-4.32" y1="107.24" x2="127.42" y2="-42.89" gradientUnits="userSpaceOnUse">
      <stop offset=".14" stop-color="#5c5c6a"/>
      <stop offset=".28" stop-color="#7c7777"/>
      <stop offset=".52" stop-color="#b1a58f"/>
      <stop offset=".73" stop-color="#d8c69f"/>
      <stop offset=".9" stop-color="#f0daaa"/>
      <stop offset="1" stop-color="#f9e2ae"/>
    </linearGradient>
  </defs>
  <g id="Layer_1-2" data-name="Layer 1">
    <path class="cls-3" d="m81.13,92.8c-1.83,0-3.62-.18-5.38-.53-1.76-.36-3.36-.85-4.79-1.5-1.44-.64-2.63-1.35-3.58-2.13l2.79-5.22c1.01.85,2.14,1.55,3.37,2.13,1.23.57,2.55,1.01,3.96,1.32,1.4.3,2.81.46,4.24.46,1.72,0,3.23-.2,4.51-.61,1.28-.41,2.27-.98,2.97-1.72s1.04-1.64,1.04-2.69c0-.95-.33-1.71-.99-2.31-.66-.59-1.51-1.08-2.56-1.47s-2.21-.75-3.47-1.09c-1.27-.34-2.54-.74-3.8-1.22-1.27-.47-2.43-1.06-3.5-1.75-1.06-.69-1.93-1.57-2.59-2.64-.66-1.06-.99-2.44-.99-4.13,0-2.3.66-4.3,1.98-6.01,1.32-1.71,3.13-3.04,5.43-3.98,2.3-.95,4.99-1.42,8.07-1.42,2.3,0,4.48.25,6.54.76,2.06.51,3.84,1.25,5.33,2.23l-2.59,5.22c-1.32-.91-2.82-1.6-4.49-2.05-1.67-.46-3.39-.69-5.15-.69s-3.32.22-4.59.66c-1.27.44-2.25,1.05-2.94,1.83-.69.78-1.04,1.69-1.04,2.74,0,.98.32,1.78.96,2.38.64.61,1.5,1.12,2.56,1.52s2.23.79,3.5,1.14c1.27.36,2.54.74,3.8,1.17,1.27.42,2.43.97,3.5,1.65,1.07.68,1.93,1.52,2.59,2.54.66,1.02.99,2.32.99,3.91,0,2.33-.65,4.37-1.95,6.11-1.3,1.74-3.13,3.08-5.48,4.01s-5.1,1.39-8.24,1.39Zm27.7-6.09h20.09l-1.12,5.58h-26.63l7.1-35.51h25.92l-1.12,5.58h-19.38l-4.87,24.35Zm2.59-15.17h17.65l-1.07,5.43h-17.65l1.07-5.43Zm35.15,21.25c-1.83,0-3.62-.18-5.38-.53-1.76-.36-3.36-.85-4.79-1.5-1.44-.64-2.63-1.35-3.58-2.13l2.79-5.22c1.01.85,2.14,1.55,3.37,2.13,1.23.57,2.55,1.01,3.96,1.32,1.4.3,2.81.46,4.24.46,1.72,0,3.23-.2,4.51-.61,1.28-.41,2.27-.98,2.97-1.72s1.04-1.64,1.04-2.69c0-.95-.33-1.71-.99-2.31-.66-.59-1.51-1.08-2.56-1.47s-2.21-.75-3.47-1.09c-1.27-.34-2.54-.74-3.8-1.22-1.27-.47-2.43-1.06-3.5-1.75-1.06-.69-1.93-1.57-2.59-2.64-.66-1.06-.99-2.44-.99-4.13,0-2.3.66-4.3,1.98-6.01,1.32-1.71,3.13-3.04,5.43-3.98,2.3-.95,4.99-1.42,8.07-1.42,2.3,0,4.48.25,6.54.76,2.06.51,3.84,1.25,5.33,2.23l-2.59,5.22c-1.32-.91-2.82-1.6-4.49-2.05-1.67-.46-3.39-.69-5.15-.69s-3.32.22-4.59.66c-1.27.44-2.25,1.05-2.94,1.83-.69.78-1.04,1.69-1.04,2.74,0,.98.32,1.78.96,2.38.64.61,1.5,1.12,2.56,1.52s2.23.79,3.5,1.14c1.27.36,2.54.74,3.8,1.17,1.27.42,2.43.97,3.5,1.65,1.07.68,1.93,1.52,2.59,2.54.66,1.02.99,2.32.99,3.91,0,2.33-.65,4.37-1.95,6.11-1.3,1.74-3.13,3.08-5.48,4.01s-5.1,1.39-8.24,1.39Z"/>
    <g>
      <path class="cls-2" d="m41.11,32.02C33.16,47.27,11.11,74.29.33,86.97l-.33-54.96h41.11Z"/>
      <path class="cls-2" d="m61.02,57.38v35.66H9.02c22.29-18.28,45.18-31.18,52-35.66Z"/>
      <path class="cls-1" d="m92.3,0s-3.32,49.28-4.12,52.34c0,0-5.26-4.78-13.18-12.42-.83.57-50.09,34.59-74.2,52.69.74-.91,40.79-50.19,52.41-74.62-3.99-4.17-8.07-8.56-12.1-13.04,0,0,48.89-3.89,51.19-4.95Z"/>
    </g>
  </g>
</svg>